<svg width="20" height="25" viewBox="0 0 20 25" fill="none" xmlns="http://www.w3.org/2000/svg">
<path fill-rule="evenodd" clip-rule="evenodd" d="M18 10.5H2C1.44772 10.5 1 10.9477 1 11.5V22.5C1 23.0523 1.44772 23.5 2 23.5H18C18.5523 23.5 19 23.0523 19 22.5V11.5C19 10.9477 18.5523 10.5 18 10.5ZM2 9.5C0.895431 9.5 0 10.3954 0 11.5V22.5C0 23.6046 0.895431 24.5 2 24.5H18C19.1046 24.5 20 23.6046 20 22.5V11.5C20 10.3954 19.1046 9.5 18 9.5H2Z" fill="#FF00FF"/>
<path d="M9 15.5H11V18.5C11 19.0523 10.5523 19.5 10 19.5C9.44772 19.5 9 19.0523 9 18.5V15.5Z" fill="#FF00FF"/>
<path d="M12 15C12 15.8284 11.1046 16.5 10 16.5C8.89543 16.5 8 15.8284 8 15C8 14.1716 8.89543 13.5 10 13.5C11.1046 13.5 12 14.1716 12 15Z" fill="#FF00FF"/>
<path fill-rule="evenodd" clip-rule="evenodd" d="M10 0C6.96243 0 4.5 2.46243 4.5 5.5V9.5H5.5V5.5C5.5 3.01472 7.51472 1 10 1C12.4853 1 14.5 3.01472 14.5 5.5V9.5H15.5V5.5C15.5 2.46243 13.0376 0 10 0Z" fill="#FF00FF"/>
</svg>
